<?xml version="1.0" encoding="UTF-8"?>
<svg xmlns="http://www.w3.org/2000/svg" xmlns:xlink="http://www.w3.org/1999/xlink" width="10in" height="10in" viewBox="0 0 720 720">
  <defs>
    <linearGradient id="linear-gradient" x1="-192.80046" y1="364.48972" x2="629.19139" y2="275.58877" gradientUnits="userSpaceOnUse">
      <stop offset="0" stop-color="#4b3176"></stop>
      <stop offset="1" stop-color="#231f20"></stop>
    </linearGradient>
    <linearGradient id="linear-gradient-2" x1="-6044.45405" y1="-512.47267" x2="-5958.98351" y2="-594.53678" gradientTransform="translate(-5332.07448 2056.95409) rotate(156.30777)" gradientUnits="userSpaceOnUse">
      <stop offset="0" stop-color="#f95461" stop-opacity="0.2"></stop>
      <stop offset="1" stop-color="#f95461" stop-opacity="0"></stop>
    </linearGradient>
    <linearGradient id="linear-gradient-3" x1="-6020.54479" y1="-535.42903" x2="-5984.43379" y2="-570.10082" xlink:href="#linear-gradient-2"></linearGradient>
    <linearGradient id="linear-gradient-4" x1="375.87833" y1="158.31885" x2="367.34387" y2="125.91949" gradientUnits="userSpaceOnUse">
      <stop offset="0" stop-color="#f95461"></stop>
      <stop offset="1" stop-color="#f95461" stop-opacity="0"></stop>
    </linearGradient>
    <linearGradient id="linear-gradient-5" x1="391.89736" y1="144.85839" x2="402.01228" y2="176.7836" xlink:href="#linear-gradient-4"></linearGradient>
    <linearGradient id="linear-gradient-6" x1="-1798.099" y1="1127.04713" x2="-1737.49197" y2="1184.65382" gradientTransform="matrix(-0.52168, -0.85314, 0.85314, -0.52168, -1767.65626, -784.55835)" gradientUnits="userSpaceOnUse">
      <stop offset="0" stop-color="#ffc76b" stop-opacity="0.2"></stop>
      <stop offset="1" stop-color="#ffc76b" stop-opacity="0"></stop>
    </linearGradient>
    <linearGradient id="linear-gradient-7" x1="-525.16053" y1="-1294.6186" x2="-464.55349" y2="-1237.01192" gradientTransform="translate(-709.46537 1251.82213) rotate(56.29604)" xlink:href="#linear-gradient-6"></linearGradient>
    <linearGradient id="linear-gradient-8" x1="-1429.21087" y1="895.18859" x2="-1368.60383" y2="952.79527" gradientTransform="translate(-1301.51763 -568.48856) rotate(-117.98844)" xlink:href="#linear-gradient-6"></linearGradient>
    <radialGradient id="radial-gradient" cx="278.07862" cy="342.49823" r="90.65697" gradientUnits="userSpaceOnUse">
      <stop offset="0" stop-color="#4ccdb9" stop-opacity="0"></stop>
      <stop offset="1" stop-color="#4ccdb9" stop-opacity="0.15"></stop>
    </radialGradient>
    <radialGradient id="radial-gradient-2" cx="278.07862" cy="338.84356" r="130.23762" gradientUnits="userSpaceOnUse">
      <stop offset="0" stop-color="#4ccdb9" stop-opacity="0"></stop>
      <stop offset="1" stop-color="#4ccdb9" stop-opacity="0.1"></stop>
    </radialGradient>
    <radialGradient id="radial-gradient-3" cx="278.07862" cy="342.49823" r="61.8215" gradientUnits="userSpaceOnUse">
      <stop offset="0" stop-color="#4ccdb9" stop-opacity="0"></stop>
      <stop offset="1" stop-color="#4ccdb9" stop-opacity="0.2"></stop>
    </radialGradient>
    <linearGradient id="linear-gradient-9" x1="-890.16489" y1="743.37385" x2="-782.5841" y2="845.62886" gradientTransform="translate(1351.20798 1157.46449) rotate(75)" gradientUnits="userSpaceOnUse">
      <stop offset="0" stop-color="#f1006e" stop-opacity="0.2"></stop>
      <stop offset="1" stop-color="#f1006e" stop-opacity="0"></stop>
    </linearGradient>
    <linearGradient id="linear-gradient-10" x1="-2255.35509" y1="1214.65185" x2="-2147.7743" y2="1316.90686" gradientTransform="translate(-994.05929 -1664.57397) rotate(-89.14465)" xlink:href="#linear-gradient-9"></linearGradient>
    <linearGradient id="linear-gradient-11" x1="302.29235" y1="542.66323" x2="323.10226" y2="525.37265" gradientTransform="translate(432.11211 -42.55718) rotate(45)" gradientUnits="userSpaceOnUse">
      <stop offset="0" stop-color="#f1006e"></stop>
      <stop offset="1" stop-color="#f1006e" stop-opacity="0"></stop>
    </linearGradient>
    <linearGradient id="linear-gradient-12" x1="375.12784" y1="483.90592" x2="359.82644" y2="491.70964" xlink:href="#linear-gradient-11"></linearGradient>
    <linearGradient id="linear-gradient-13" x1="-7713.77348" y1="1778.59094" x2="-7770.9413" y2="1721.42312" gradientTransform="translate(7838.19096 -1217.91272)" gradientUnits="userSpaceOnUse">
      <stop offset="0" stop-color="#d49cef" stop-opacity="0.2"></stop>
      <stop offset="0.02639" stop-color="#d49cef" stop-opacity="0.18209"></stop>
      <stop offset="0.20164" stop-color="#d49cef" stop-opacity="0.08183"></stop>
      <stop offset="0.36401" stop-color="#d49cef" stop-opacity="0.021"></stop>
      <stop offset="0.5" stop-color="#d49cef" stop-opacity="0"></stop>
      <stop offset="0.63488" stop-color="#d49cef" stop-opacity="0.02248"></stop>
      <stop offset="0.80349" stop-color="#d49cef" stop-opacity="0.08696"></stop>
      <stop offset="0.98944" stop-color="#d49cef" stop-opacity="0.193"></stop>
      <stop offset="1" stop-color="#d49cef" stop-opacity="0.2"></stop>
    </linearGradient>
    <linearGradient id="linear-gradient-14" x1="-7697.57244" y1="1794.79198" x2="-7784.36403" y2="1708.00039" xlink:href="#linear-gradient-13"></linearGradient>
    <linearGradient id="linear-gradient-15" x1="-7682.22756" y1="1810.13687" x2="-7797.07743" y2="1695.28699" xlink:href="#linear-gradient-13"></linearGradient>
  </defs>
  <title>ns1-hero-next-gen</title>
  <g id="Layer_4" data-name="Layer 4">
    <path d="M508.99292,330.18755s-9.671-1.35551-12.66253-6.8994-11.95668-6.704-10.92414-19.21919c1.54861-18.77274,1.54861-34.28065-16.26046-56.31821-12.73447-15.7583-24.36655-17.23706-24.36655-17.23706-7.61049-.96751-13.55228-6.81474-13.204-12.99385V211.8193c0-117.94494-94.05671-165.24621-205.94712-165.24621S26.38425,93.87436,26.38425,211.8193c0,45.05677,29.658,108.1351,29.658,108.1351,3.40408,7.24,2.70042,18.65765-1.5637,25.37254,0,0-28.0943,44.24133-28.0943,80.24551,0,72.91842,80.824,132.80348,157.31825,127.14348s47.47939,18.72262,96.49734,27.013,81.64652-1.60794,88.67358-4.83677c0,0,27.4875-12.63008,29.03611-34.9397,2.32293-33.46444-6.96876-53.86959,10.84031-69.3775s34.06951-13.0593,40.264-19.58894,30.198-8.16206,20.132-45.70754c-6.71053-25.03033,15.87983-30.81344,15.87983-30.81344,7.44912-1.907,13.57752-3.16588,13.48442-3.4672l-8.61727-26.9006C487.42518,336.44691,502.60488,330.18755,508.99292,330.18755Z" style="fill: url(#linear-gradient)"></path>
    <g id="Human">
      <path id="Shape" d="M571.72652,343.69387l-11.42688-25.30239,12.24308-16.32412q-4.081,4.89724,26.11859,19.589t-13.8755,22.03756Z" style="fill: #fff"></path>
      <path id="Shape-2" data-name="Shape" d="M572.10483,341.82681l-7.60394-17.58271-1.87286.80992,8.86856,20.50685L595.42,318.88954l-6.69379-3.31673q-10.7553-5.32929-16.07893-13.25869l-1.69306,1.13893q5.64873,8.39681,16.866,13.94814l4.28794,2.12459Z" style="fill: #2e2e40"></path>
      <polygon id="Shape-3" data-name="Shape" points="539.619 312.574 533.282 295.676 526.945 315.743 539.619 312.574" style="fill: #2e2e40"></polygon>
      <polygon id="Shape-4" data-name="Shape" points="536.905 311.149 529.99 312.878 533.448 301.929 536.905 311.149" style="fill: #fff"></polygon>
      <path id="Shape-5" data-name="Shape" d="M573.2569,289.85971c0-3.3573-.87374-4.99036-3.076-6.65869l-1.41073-1.02623-.06407-.04781a12.70254,12.70254,0,0,1-1.26569-1.07421l-.65-.63052-.27482-.25947c-.20919-.19426-.37733-.34159-.56873-.50058a8.72528,8.72528,0,0,0-2.347-1.40592l-.45144-.1794-.50213-.184c-1.44591-.50727-3.4541-1.02132-9.45028-2.48649-7.68262-1.87727-14.5314,1.31327-20.41429,9.40049l-.42557.594-.01086.306c-1.6591,46.572,11.25695,58.6355,37.82242,34.52509l-1.37139-1.511c-24.79887,22.507-35.96661,12.18057-34.42259-32.63363,5.44328-7.52485,11.51144-10.36679,18.33794-8.69881l4.39005,1.082,1.85564.47258a30.69294,30.69294,0,0,1,3.61073,1.09706,6.92255,6.92255,0,0,1,2.0748,1.1915l.20266.17246.29.262c.21287.19785.47846.45471.87865.84583a13.91429,13.91429,0,0,0,1.14391.9983l.31955.246c.302.22764,1.257.91219,1.29915.943,1.84969,1.356,2.43964,2.39386,2.43964,5.16039v8.24646l2.8093,8.23747,1.93131-.65868-2.7001-7.91711Z" style="fill: #2e2e40"></path>
      <path id="Shape-6" data-name="Shape" d="M568.83658,318.68631c-24.839,22.54173-36.00693,12.21526-34.46291-32.59894,5.44328-7.52485,11.51144-10.36679,18.33794-8.69881l4.39005,1.082,1.85564.47258a30.69294,30.69294,0,0,1,3.61073,1.09706,6.92255,6.92255,0,0,1,2.0748,1.1915l.20266.17246.29.262c.21287.19785.47846.45471.87865.84583a13.91429,13.91429,0,0,0,1.14391.9983l.31955.246c.302.22764,1.257.91219,1.29915.943,1.84969,1.356,2.43964,2.39386,2.43964,5.16039v8.24646l2.77069,8.12418A13.51144,13.51144,0,0,1,568.83658,318.68631Z" style="fill: #fff"></path>
      <path id="Shape-7" data-name="Shape" d="M531.73243,287.49809q0-24.60861,23.78661-24.60861c23.78652,0,26.42948,16.40574,23.78652,27.3429s-4.85838,20.77244,13.64231,28.97531c-10.57182-2.73429-26.85709-15.30386-26.85709-18.03815s5.28591-8.20287,0-10.93716q-5.28584-2.73435-5.28591,13.67145-7.92875-8.20287-7.92879-16.40574Z" style="fill: #d49cef"></path>
      <path id="Shape-8" data-name="Shape" d="M593.6676,318.26123Q715.495,367.28954,715.58282,479.18405v1.551l-1.809-.7807-.75-.3287q-18.92207-8.35076-91.54493-45.97238l-10.09916-5.23833-40.86621-84.9721,22.48558-25.4506Z" style="fill: #2e2e40"></path>
      <path id="Shape-9" data-name="Shape" d="M572.93948,343.77893l39.98438,83.13856,9.13857,4.74q69.99729,36.26379,90.19941,45.39272l1.27442.57085q-.83682-107.89491-117.59038-156.22572l-2.37222-.97153Z" style="fill: #fff"></path>
      <path id="Shape-10" data-name="Shape" d="M568.20843,337.98043q14.35392,45.90535,2.87076,48.77451t-34.44953,8.60721l83.253,37.29816Z" style="fill: #2e2e40"></path>
      <path id="Shape-11" data-name="Shape" d="M549.893,369.697l69.57119,37.36541.96549-1.79769-72.5772-38.97979V387.6331l.467.30134q45.706,29.49875,83.48979,51.09262l1.30054.74225c17.42142,9.92956,30.19105,12.33443,38.18668,8.55678,6.20741-2.93287,8.80556-9.73441,7.05251-15.13368q-8.31133-54.94968-76.94235-104.20273l-1.19027,1.65739q68.03424,48.859,76.12769,102.93434l.0413.17165c1.49244,4.46587-.68936,10.23759-5.96059,12.72807-7.19591,3.39983-19.16,1.1942-35.79887-8.1978l-.50564-.28681q-36.76257-20.95332-81.10614-49.465l-3.12117-2.01015Z" style="fill: #2e2e40"></path>
      <path id="Shape-12" data-name="Shape" d="M621.49786,408.15455,549.893,369.697v16.82437l3.12117,2.01015Q596.5795,416.543,632.828,437.259l1.79794,1.02434.99267.55494c16.12276,8.92309,27.75419,10.9747,34.8062,7.64286,5.27123-2.49048,7.453-8.2622,5.96059-12.72807l-.0413-.17165q-7.91466-52.629-72.54944-100.33048l-1.3123-.963Z" style="fill: #fff"></path>
      <path id="Shape-13" data-name="Shape" d="M511.51566,368.99625H494.94039L481.12766,328.186h24.86286q8.28771,27.20687,8.28767,29.92751t2.76253,10.88279Z" style="fill: #d2dde5"></path>
      <path id="Shape-14" data-name="Shape" d="M549.893,368.23189,520.2338,351.9045l-.30714-.89807c-1.6902-4.84573-3.39615-8.14786-5.17017-9.9383-1.46877-1.48238-3.033-.95609-3.70362,1.0743a24.89125,24.89125,0,0,0-.71532,6.73811H494.43329l-.16292.82192c-1.89792,9.57761,5.46164,16.23148,21.54114,19.97329l.49.11248.85547.56636.97422.63175q8.77046,5.63414,30.24264,17.67257l1.5192.85179Z" style="fill: #2e2e40"></path>
      <path id="Shape-15" data-name="Shape" d="M547.85249,386.02632l-4.02495-2.26881-4.00749-2.275q-15.46645-8.81576-21.91268-13.07668l-.78511-.52451-.18716-.04194c-15.0923-3.38489-21.85677-9.028-20.79986-16.91831h16.23662V349.9008a26.964,26.964,0,0,1,.6186-7.11838,2.77685,2.77685,0,0,1,.16928-.41479c.04383.03673.09321.08211.14725.13671,1.64734,1.66261,3.37509,5.15,5.11614,10.42132l.12561.38051,29.30375,16.13174Z" style="fill: #fff"></path>
      <polygon id="Shape-16" data-name="Shape" points="526.319 490.69 492.422 411.812 425.853 616.511 468.723 616.511 526.319 490.69" style="fill: #2e2e40"></polygon>
      <polygon id="Shape-17" data-name="Shape" points="524.087 490.664 467.413 614.47 428.663 614.47 492.687 417.596 524.087 490.664" style="fill: #fff"></polygon>
      <polygon id="Shape-18" data-name="Shape" points="484.352 583.454 469.539 615.694 425.855 615.694 436.311 583.454 484.352 583.454" style="fill: #2e2e40"></polygon>
      <polygon id="Shape-19" data-name="Shape" points="428.662 613.654 468.231 613.654 481.168 585.495 437.794 585.495 428.662 613.654" style="fill: #fff"></polygon>
      <polygon id="Shape-20" data-name="Shape" points="481.128 448.984 512.96 519.178 528.468 484.081 491.738 417.152 481.128 448.984" style="fill: #2e2e40"></polygon>
      <path id="Shape-21" data-name="Shape" d="M693.82138,536.77146l.34631-.04309.47251-.47388a19.92777,19.92777,0,0,0,12.45471-7.4014c5.4-6.72,5.06618-5.74493,6.777-11.51246S716.399,497.254,716.399,479.12937V478.465l-1.6036-.7114Q689.863,466.61727,612.85008,426.9859l-.06669-.03135-10.3237-4.39257-8.83812-3.74353q-56.95-24.065-67.26068-26.851l-2.328-.58457-.89178-.21727-.8398-.19924q-.20618-.04814-.41063-.09517a59.27668,59.27668,0,0,0-11.26275-1.651c-6.9433-.24241-12.37988,1.40381-15.87406,5.55633-4.1953,4.98555-5.21009,13.24376-2.626,25.24142q8.08191,37.52421,69.29638,172.74565l1.51389,3.34195h37.3522l-42.44026-116.1181Q629.63075,544.70944,693.82138,536.77146Z" style="fill: #2e2e40"></path>
      <path id="Shape-22" data-name="Shape" d="M611.94915,428.81714l9.126,4.69008,8.23119,4.21872q63.16038,32.32567,85.05135,42.0666l-.00718,1.38-.01478,1.37654c-.21662,15.92662-1.64453,29.91973-3.23534,33.77019s-2.39407,7.27625-7.11222,12.26554-9.30725,4.69677-10.76972,6.20479q-64.38825,7.80141-137.06253-59.10727l-3.09334-2.8497L597.372,594.065H564.25366Q502.219,457.16526,494.12264,419.5883c-2.464-11.44068-1.52541-19.07971,2.19249-23.498,3.01768-3.58608,7.86365-5.05346,14.24165-4.8308a55.72939,55.72939,0,0,1,10.20608,1.44852l.67084.15182c.537.12341,1.07691.25163,1.6627.39439l2.30749.57249C532.54863,395.60384,561.46738,407.29215,611.94915,428.81714Z" style="fill: #fff"></path>
      <path id="Shape-23" data-name="Shape" d="M561.80407,594.065l.82,1.5077q15.75722,28.9718,2.93605,55.20645l-.73262,1.48223c-4.24036,8.62934-6.36437,14.72273-6.36437,18.39712,0,4.38384,2.96005,5.64088,7.88831,3.74035l.47715-.18952,43.61707-51.9449L599.19838,594.065Z" style="fill: #2e2e40"></path>
      <path id="Shape-24" data-name="Shape" d="M597.8154,596.10555,608.09829,621.887,565.5964,672.50366l-.427.16071c-3.39966,1.23549-4.66567.57575-4.66567-2.00583,0-3.33,2.12752-9.36262,6.39056-17.97432l.23042-.46377q13.21091-26.498-1.60417-55.52918l-.30184-.58572Z" style="fill: #fff"></path>
      <path id="Shape-25" data-name="Shape" d="M470.517,613.858H427.6407l-.30493.40647A93.99153,93.99153,0,0,1,371.635,650.55335l-.8775.19867-.15427.09965c-2.35238,1.52019-3.38178,2.87827-2.74163,4.27447.51943,1.13273,2.00942,1.73452,4.49444,2.136l.493.0759.5045.07027c3.29527.43447,7.51946.52482,16.80919.52482h57.619Z" style="fill: #2e2e40"></path>
      <path id="Shape-26" data-name="Shape" d="M467.25216,615.49045l-20.7815,39.99409-58.92615-.0022-2.96642-.0125a82.92,82.92,0,0,1-12.28276-.6279l-.43863-.07533c-1.54753-.28462-2.4256-.654-2.5437-.90975-.06261-.13549.39537-.74242,1.8647-1.7053q35.07168-7.84916,56.917-36.08879l.43961-.57232Z" style="fill: #fff"></path>
      <polygon id="Shape-27" data-name="Shape" points="592.132 573.048 600.043 596.106 562.912 596.106 552.175 572.844 592.132 573.048" style="fill: #2e2e40"></polygon>
      <polygon id="Shape-28" data-name="Shape" points="564.217 594.065 597.28 594.065 591.378 574.884 555.365 574.884 564.217 594.065" style="fill: #fff"></polygon>
      <polygon points="709.422 522.841 649.092 533.085 667.289 535.63 688.645 536.612 702.036 532.729 709.422 522.841" style="fill: #2e2e40"></polygon>
    </g>
    <rect x="420.07754" y="657.93315" width="69.78516" height="62.05109" style="fill: #2e2e40"></rect>
    <rect x="647.21244" y="536.50601" width="69.78516" height="183.47824" style="fill: #2e2e40"></rect>
    <rect x="525.6454" y="650.9071" width="134.60494" height="26.85115" transform="translate(-297.41374 677.7966) rotate(-49.11595)" style="fill: #2e2e40"></rect>
  </g>
  <g id="Layer_5" data-name="Layer 5">
    <g>
      <circle cx="386.92044" cy="150.46691" r="66.22587" style="fill: url(#linear-gradient-2)"></circle>
      <circle cx="386.92044" cy="150.46691" r="27.98019" style="fill: url(#linear-gradient-3)"></circle>
      <polygon points="403.384 159.972 403.384 140.962 386.92 131.457 370.457 140.962 370.457 159.972 386.92 169.477 403.384 159.972" style="fill: #f95461"></polygon>
      <path d="M386.92032,191.63919A41.04443,41.04443,0,0,0,416.02,179.56648l-58.19918-58.19919a41.153,41.153,0,0,0,29.09947,70.2719Z" style="fill: none"></path>
      <path d="M386.92032,191.63919a41.153,41.153,0,0,1-29.09947-70.2719l-6.98146-6.98142a51.02631,51.02631,0,1,0,72.1621,72.16206L416.02,179.56648A41.04443,41.04443,0,0,1,386.92032,191.63919Z" style="fill: url(#linear-gradient-4)"></path>
      <path d="M386.92032,99.41664a50.8906,50.8906,0,0,0-36.06582,14.95448l-4.32514-4.32516-5.71107,21.31414,21.31407-5.71112-4.2964-4.29644A41.15292,41.15292,0,1,1,416.02,179.56648l6.98146,6.98145a51.02632,51.02632,0,0,0-36.08117-87.13129Z" style="fill: url(#linear-gradient-5)"></path>
      <polygon points="432.738 169.55 411.424 175.261 427.027 190.864 432.738 169.55" style="fill: #f95461"></polygon>
    </g>
  </g>
  <g id="Layer_6" data-name="Layer 6">
    <g>
      <circle cx="145.34961" cy="98.81709" r="38.78564" style="fill: url(#linear-gradient-6)"></circle>
      <circle cx="65.17501" cy="159.72484" r="38.78564" style="fill: url(#linear-gradient-7)"></circle>
      <circle cx="176.88913" cy="211.68612" r="38.78564" style="fill: url(#linear-gradient-8)"></circle>
      <g style="opacity: 0.1">
        <line x1="124.86696" y1="50.54905" x2="124.86696" y2="273.61816" style="fill: none;stroke: #ffc76b;stroke-miterlimit: 10;stroke-width: 4.22317585301971px"></line>
        <line x1="236.40151" y1="162.08361" x2="13.3324" y2="162.08361" style="fill: none;stroke: #ffc76b;stroke-miterlimit: 10;stroke-width: 4.22317585301971px"></line>
        <ellipse cx="124.86696" cy="162.23807" rx="60.20431" ry="110.81007" style="fill: none;stroke: #ffc76b;stroke-miterlimit: 10;stroke-width: 4.22317585301971px"></ellipse>
        <ellipse cx="124.86696" cy="162.23807" rx="110.81007" ry="60.20431" style="fill: none;stroke: #ffc76b;stroke-miterlimit: 10;stroke-width: 4.22317585301971px"></ellipse>
      </g>
      <path d="M61.79222,130.96272A11.88214,11.88214,0,0,0,52.754,142.70244a11.62617,11.62617,0,0,0,.50028,3.46855,10.75042,10.75042,0,0,0,1.56752,3.3018c.16675.26681,6.17,8.50463,8.83814,12.13994a1.53014,1.53014,0,0,0,2.468,0c2.66812-3.63531,8.70474-11.90648,8.87149-12.20664a11.03329,11.03329,0,0,0,1.50082-3.23509,11.95045,11.95045,0,0,0,.50027-3.46856A12.10176,12.10176,0,0,0,61.79222,130.96272ZM64.8939,148.072a5.36959,5.36959,0,1,1,5.36959-5.36959A5.36608,5.36608,0,0,1,64.8939,148.072Z" style="fill: #ffc76b"></path>
      <path d="M141.82527,71.79235A11.88215,11.88215,0,0,0,132.787,83.53207a11.62622,11.62622,0,0,0,.50027,3.46855,10.75042,10.75042,0,0,0,1.56752,3.3018c.16676.26681,6.17,8.50463,8.83814,12.13994a1.53014,1.53014,0,0,0,2.468,0c2.66812-3.63531,8.70474-11.90648,8.87149-12.20664a11.033,11.033,0,0,0,1.50082-3.23509,11.95011,11.95011,0,0,0,.50027-3.46856A12.10176,12.10176,0,0,0,141.82527,71.79235ZM144.927,88.90166a5.36959,5.36959,0,1,1,5.36958-5.36959A5.36608,5.36608,0,0,1,144.927,88.90166Z" style="fill: #ffc76b"></path>
      <path d="M173.88211,184.544a11.88215,11.88215,0,0,0-9.03825,11.73972,11.62628,11.62628,0,0,0,.50027,3.46856,10.75064,10.75064,0,0,0,1.56752,3.3018c.16676.26681,6.17,8.50462,8.83814,12.13993a1.53014,1.53014,0,0,0,2.468,0c2.66812-3.63531,8.70474-11.90647,8.8715-12.20664a11.03327,11.03327,0,0,0,1.50081-3.23509,11.95009,11.95009,0,0,0,.50027-3.46855A12.10175,12.10175,0,0,0,173.88211,184.544Zm3.10169,17.10931a5.36959,5.36959,0,1,1,5.36958-5.36959A5.36608,5.36608,0,0,1,176.9838,201.6533Z" style="fill: #ffc76b"></path>
    </g>
  </g>
  <g id="Layer_7" data-name="Layer 7">
    <g>
      <path d="M348.23353,324.41954a55.34107,55.34107,0,0,0-104.609-20.29552,26.80549,26.80549,0,0,0-39.865,21.04458,43.66683,43.66683,0,0,0,9.85351,86.208H342.54426a43.6643,43.6643,0,0,0,5.68927-86.957Z" style="fill: url(#radial-gradient)"></path>
      <path d="M378.863,312.87175a79.50287,79.50287,0,0,0-150.28113-29.15651,38.50872,38.50872,0,0,0-57.27,30.23261A62.73168,62.73168,0,0,0,185.46742,437.794h185.2224A62.728,62.728,0,0,0,378.863,312.87175Z" style="fill: url(#radial-gradient-2)"></path>
      <path d="M325.91919,330.16987a37.73861,37.73861,0,0,0-71.3358-13.84008,18.27942,18.27942,0,0,0-27.18506,14.35088,29.77763,29.77763,0,0,0,6.71939,58.7876h87.9218a29.7759,29.7759,0,0,0,3.87967-59.2984Z" style="fill: url(#radial-gradient-3)"></path>
      <path d="M306.41616,337.93674a22.35381,22.35381,0,0,0-42.25453-8.19793,10.8275,10.8275,0,0,0-16.10261,8.5005,17.63826,17.63826,0,0,0,3.98012,34.82182h52.079a17.63724,17.63724,0,0,0,2.29806-35.12439Z" style="fill: #4ccdb9"></path>
    </g>
  </g>
  <g id="Layer_8" data-name="Layer 8">
    <g>
      <g>
        <circle cx="348.38154" cy="590.014" r="68.84663" style="fill: url(#linear-gradient-9)"></circle>
        <circle cx="266.42693" cy="527.34282" r="68.84663" style="fill: url(#linear-gradient-10)"></circle>
      </g>
      <g>
        <polygon points="331.099 558.253 322.133 549.286 322.133 567.219 331.099 558.253" style="fill: #f1006e"></polygon>
        <path d="M372.57513,587.55983a36.31119,36.31119,0,0,0-9.61423-24.21155l-9.86687,9.86687a22.5171,22.5171,0,1,1-39.5003,15.16869l1.59435-59.16768.00087-.26947a36.46275,36.46275,0,1,0-62.10614,26.34469l9.85413-9.85413A22.52365,22.52365,0,1,1,301.25,528.98563l-1.59516,59.16683-.00088.26946a36.22257,36.22257,0,0,0,10.6689,25.34513c.10394.10393.20964.20793.31451.31109a36.4635,36.4635,0,0,0,61.93777-26.51831Z" style="fill: #f1006e"></path>
        <path d="M253.25281,555.46488a36.21748,36.21748,0,0,0,25.72632,10.37595l12.09246.45412.52419-13.92858-12.25533-.46092-.344-.00433a22.38228,22.38228,0,0,1-16.00455-6.40757c-.01883-.01837-.0362-.03787-.055-.0563l-9.85413,9.85413C253.14066,555.34831,253.19459,555.40832,253.25281,555.46488Z" style="fill: url(#linear-gradient-11)"></path>
        <path d="M335.68258,551.53031l.16468,13.938a22.484,22.484,0,0,1,17.24677,7.7468l9.86687-9.86687A36.37952,36.37952,0,0,0,335.68258,551.53031Z" style="fill: url(#linear-gradient-12)"></path>
      </g>
    </g>
  </g>
  <g id="Layer_9" data-name="Layer 9">
    <g>
      <rect x="47.77065" y="498.07732" width="90.76426" height="62.67243" rx="10" transform="translate(186.30557 1058.82706) rotate(180)" style="fill: url(#linear-gradient-13)"></rect>
      <rect x="32.997" y="476.14069" width="120.31156" height="106.54569" rx="10" transform="translate(186.30557 1058.82706) rotate(-180)" style="fill: url(#linear-gradient-14)"></rect>
      <rect x="14.64186" y="459.72552" width="157.02184" height="139.37602" rx="10" transform="translate(186.30557 1058.82706) rotate(180)" style="fill: url(#linear-gradient-15)"></rect>
      <g>
        <rect x="79.76051" y="487.18708" width="26.78455" height="51.06385" rx="13.39226" style="fill: none;stroke: #d49cef;stroke-miterlimit: 10;stroke-width: 4.14524413098909px"></rect>
        <rect x="68.01483" y="511.24684" width="50.27591" height="35.12728" rx="10" style="fill: #d49cef"></rect>
      </g>
    </g>
  </g>
  <g id="Layer_10" data-name="Layer 10">
    <path d="M496.02828,322.32038V260.65309s4.82692-20.76-14.85981-20.76H292.13491s-22.68322-.84642-22.68322-22.68321V102.02153s.8567-22.55-22.55-22.55H168.48581" style="fill: none;stroke: #d49cef;stroke-linecap: round;stroke-width: 3px;stroke-dasharray: 0,9"></path>
    <line x1="481.16847" y1="351.96787" x2="332.14078" y2="351.96787" style="fill: none;stroke: #d49cef;stroke-linecap: round;stroke-width: 3px;stroke-dasharray: 0,9"></line>
    <path d="M217.7923,351.96787H114.24273s-20.5912-3.395-20.5912,20.5912V476.14069" style="fill: none;stroke: #d49cef;stroke-linecap: round;stroke-width: 3px;stroke-dasharray: 0,9"></path>
    <path d="M276.58934,148.812s5.72888-11.64207,13.6439-11.64207h38.1521" style="fill: none;stroke: #d49cef;stroke-linecap: round;stroke-width: 3px;stroke-dasharray: 0,9"></path>
    <line x1="278.07862" y1="384.3798" x2="278.07862" y2="483.868" style="fill: none;stroke: #d49cef;stroke-linecap: round;stroke-width: 3px;stroke-dasharray: 0,9"></line>
  </g>
</svg>
